<svg xmlns="http://www.w3.org/2000/svg" viewBox="0 0 800 400" fill="none">
  <!-- Sky gradient -->
  <defs>
    <linearGradient id="sky" x1="0" y1="0" x2="0" y2="1">
      <stop offset="0%" stop-color="#E8F4FD"/>
      <stop offset="100%" stop-color="#B3D9F7"/>
    </linearGradient>
    <linearGradient id="building1" x1="0" y1="0" x2="0" y2="1">
      <stop offset="0%" stop-color="#0066FF"/>
      <stop offset="100%" stop-color="#0052CC"/>
    </linearGradient>
    <linearGradient id="building2" x1="0" y1="0" x2="0" y2="1">
      <stop offset="0%" stop-color="#1A1A2E"/>
      <stop offset="100%" stop-color="#2D2D44"/>
    </linearGradient>
    <linearGradient id="building3" x1="0" y1="0" x2="0" y2="1">
      <stop offset="0%" stop-color="#4A90D9"/>
      <stop offset="100%" stop-color="#357ABD"/>
    </linearGradient>
    <linearGradient id="crane" x1="0" y1="0" x2="0" y2="1">
      <stop offset="0%" stop-color="#FF9100"/>
      <stop offset="100%" stop-color="#E67E00"/>
    </linearGradient>
  </defs>

  <!-- Ground -->
  <rect x="0" y="340" width="800" height="60" fill="#E0E7EF" rx="0"/>

  <!-- Building 1 - tall blue -->
  <rect x="80" y="120" width="100" height="220" rx="4" fill="url(#building1)"/>
  <rect x="92" y="135" width="20" height="18" rx="2" fill="rgba(255,255,255,0.3)"/>
  <rect x="118" y="135" width="20" height="18" rx="2" fill="rgba(255,255,255,0.3)"/>
  <rect x="148" y="135" width="20" height="18" rx="2" fill="rgba(255,255,255,0.3)"/>
  <rect x="92" y="163" width="20" height="18" rx="2" fill="rgba(255,255,255,0.3)"/>
  <rect x="118" y="163" width="20" height="18" rx="2" fill="rgba(255,255,255,0.3)"/>
  <rect x="148" y="163" width="20" height="18" rx="2" fill="rgba(255,255,255,0.3)"/>
  <rect x="92" y="191" width="20" height="18" rx="2" fill="rgba(255,255,255,0.3)"/>
  <rect x="118" y="191" width="20" height="18" rx="2" fill="rgba(255,255,255,0.3)"/>
  <rect x="148" y="191" width="20" height="18" rx="2" fill="rgba(255,255,255,0.3)"/>
  <rect x="92" y="219" width="20" height="18" rx="2" fill="rgba(255,255,255,0.3)"/>
  <rect x="118" y="219" width="20" height="18" rx="2" fill="rgba(255,255,255,0.3)"/>
  <rect x="148" y="219" width="20" height="18" rx="2" fill="rgba(255,255,255,0.3)"/>
  <rect x="92" y="247" width="20" height="18" rx="2" fill="rgba(255,255,255,0.3)"/>
  <rect x="118" y="247" width="20" height="18" rx="2" fill="rgba(255,255,255,0.3)"/>
  <rect x="148" y="247" width="20" height="18" rx="2" fill="rgba(255,255,255,0.3)"/>
  <rect x="92" y="275" width="20" height="18" rx="2" fill="rgba(255,255,255,0.4)"/>
  <rect x="118" y="275" width="20" height="18" rx="2" fill="rgba(255,255,255,0.4)"/>
  <rect x="148" y="275" width="20" height="18" rx="2" fill="rgba(255,255,255,0.4)"/>
  <rect x="115" y="305" width="30" height="35" rx="2" fill="rgba(255,255,255,0.5)"/>

  <!-- Building 2 - dark wide -->
  <rect x="200" y="180" width="130" height="160" rx="4" fill="url(#building2)"/>
  <rect x="215" y="195" width="18" height="14" rx="2" fill="rgba(255,255,255,0.2)"/>
  <rect x="241" y="195" width="18" height="14" rx="2" fill="rgba(255,255,255,0.2)"/>
  <rect x="267" y="195" width="18" height="14" rx="2" fill="rgba(255,255,255,0.2)"/>
  <rect x="293" y="195" width="18" height="14" rx="2" fill="rgba(255,255,255,0.2)"/>
  <rect x="215" y="218" width="18" height="14" rx="2" fill="rgba(255,255,255,0.2)"/>
  <rect x="241" y="218" width="18" height="14" rx="2" fill="rgba(255,255,255,0.2)"/>
  <rect x="267" y="218" width="18" height="14" rx="2" fill="rgba(255,255,255,0.2)"/>
  <rect x="293" y="218" width="18" height="14" rx="2" fill="rgba(255,255,255,0.2)"/>
  <rect x="215" y="241" width="18" height="14" rx="2" fill="rgba(255,255,255,0.25)"/>
  <rect x="241" y="241" width="18" height="14" rx="2" fill="rgba(255,255,255,0.25)"/>
  <rect x="267" y="241" width="18" height="14" rx="2" fill="rgba(255,255,255,0.25)"/>
  <rect x="293" y="241" width="18" height="14" rx="2" fill="rgba(255,255,255,0.25)"/>
  <rect x="215" y="264" width="18" height="14" rx="2" fill="rgba(255,255,255,0.25)"/>
  <rect x="241" y="264" width="18" height="14" rx="2" fill="rgba(255,255,255,0.25)"/>
  <rect x="267" y="264" width="18" height="14" rx="2" fill="rgba(255,255,255,0.25)"/>
  <rect x="293" y="264" width="18" height="14" rx="2" fill="rgba(255,255,255,0.25)"/>
  <rect x="248" y="300" width="34" height="40" rx="2" fill="rgba(255,255,255,0.3)"/>

  <!-- Building 3 - medium blue -->
  <rect x="350" y="150" width="90" height="190" rx="4" fill="url(#building3)"/>
  <rect x="362" y="165" width="16" height="14" rx="2" fill="rgba(255,255,255,0.3)"/>
  <rect x="384" y="165" width="16" height="14" rx="2" fill="rgba(255,255,255,0.3)"/>
  <rect x="412" y="165" width="16" height="14" rx="2" fill="rgba(255,255,255,0.3)"/>
  <rect x="362" y="188" width="16" height="14" rx="2" fill="rgba(255,255,255,0.3)"/>
  <rect x="384" y="188" width="16" height="14" rx="2" fill="rgba(255,255,255,0.3)"/>
  <rect x="412" y="188" width="16" height="14" rx="2" fill="rgba(255,255,255,0.3)"/>
  <rect x="362" y="211" width="16" height="14" rx="2" fill="rgba(255,255,255,0.3)"/>
  <rect x="384" y="211" width="16" height="14" rx="2" fill="rgba(255,255,255,0.3)"/>
  <rect x="412" y="211" width="16" height="14" rx="2" fill="rgba(255,255,255,0.3)"/>
  <rect x="362" y="234" width="16" height="14" rx="2" fill="rgba(255,255,255,0.35)"/>
  <rect x="384" y="234" width="16" height="14" rx="2" fill="rgba(255,255,255,0.35)"/>
  <rect x="412" y="234" width="16" height="14" rx="2" fill="rgba(255,255,255,0.35)"/>
  <rect x="362" y="257" width="16" height="14" rx="2" fill="rgba(255,255,255,0.35)"/>
  <rect x="384" y="257" width="16" height="14" rx="2" fill="rgba(255,255,255,0.35)"/>
  <rect x="412" y="257" width="16" height="14" rx="2" fill="rgba(255,255,255,0.35)"/>
  <rect x="382" y="295" width="26" height="45" rx="2" fill="rgba(255,255,255,0.4)"/>

  <!-- Building 4 - small -->
  <rect x="460" y="230" width="70" height="110" rx="4" fill="#5B8DEF"/>
  <rect x="472" y="245" width="14" height="12" rx="2" fill="rgba(255,255,255,0.3)"/>
  <rect x="494" y="245" width="14" height="12" rx="2" fill="rgba(255,255,255,0.3)"/>
  <rect x="472" y="265" width="14" height="12" rx="2" fill="rgba(255,255,255,0.3)"/>
  <rect x="494" y="265" width="14" height="12" rx="2" fill="rgba(255,255,255,0.3)"/>
  <rect x="472" y="285" width="14" height="12" rx="2" fill="rgba(255,255,255,0.35)"/>
  <rect x="494" y="285" width="14" height="12" rx="2" fill="rgba(255,255,255,0.35)"/>
  <rect x="485" y="310" width="20" height="30" rx="2" fill="rgba(255,255,255,0.4)"/>

  <!-- Crane -->
  <rect x="560" y="80" width="8" height="260" fill="url(#crane)"/>
  <rect x="520" y="80" width="120" height="8" fill="url(#crane)"/>
  <rect x="520" y="80" width="4" height="60" fill="#E67E00" transform="rotate(-15 520 80)"/>
  <line x1="635" y1="88" x2="635" y2="180" stroke="#E67E00" stroke-width="2"/>
  <rect x="625" y="180" width="20" height="15" rx="2" fill="#FF9100"/>

  <!-- Building 5 - under construction -->
  <rect x="580" y="200" width="80" height="140" rx="4" fill="#D1D5DB" stroke="#9CA3AF" stroke-width="2" stroke-dasharray="8 4"/>
  <rect x="595" y="220" width="14" height="12" rx="2" fill="rgba(0,0,0,0.08)"/>
  <rect x="617" y="220" width="14" height="12" rx="2" fill="rgba(0,0,0,0.08)"/>
  <rect x="639" y="220" width="14" height="12" rx="2" fill="rgba(0,0,0,0.08)"/>
  <rect x="595" y="245" width="14" height="12" rx="2" fill="rgba(0,0,0,0.08)"/>
  <rect x="617" y="245" width="14" height="12" rx="2" fill="rgba(0,0,0,0.08)"/>
  <rect x="639" y="245" width="14" height="12" rx="2" fill="rgba(0,0,0,0.08)"/>

  <!-- Trees -->
  <circle cx="700" cy="310" r="22" fill="#34D399"/>
  <circle cx="690" cy="300" r="18" fill="#10B981"/>
  <rect x="697" y="320" width="6" height="20" rx="2" fill="#92400E"/>

  <circle cx="740" cy="315" r="18" fill="#34D399"/>
  <circle cx="732" cy="306" r="15" fill="#10B981"/>
  <rect x="737" y="324" width="5" height="16" rx="2" fill="#92400E"/>

  <circle cx="50" cy="320" r="20" fill="#34D399"/>
  <circle cx="42" cy="310" r="16" fill="#10B981"/>
  <rect x="47" y="330" width="5" height="10" rx="2" fill="#92400E"/>

  <!-- Clouds -->
  <ellipse cx="150" cy="60" rx="50" ry="20" fill="white" opacity="0.6"/>
  <ellipse cx="130" cy="55" rx="30" ry="15" fill="white" opacity="0.5"/>
  <ellipse cx="500" cy="45" rx="60" ry="18" fill="white" opacity="0.5"/>
  <ellipse cx="480" cy="38" rx="35" ry="14" fill="white" opacity="0.4"/>
  <ellipse cx="700" cy="70" rx="40" ry="14" fill="white" opacity="0.4"/>
</svg>
